<?xml version="1.0" encoding="UTF-8" standalone="no"?>
<!DOCTYPE svg PUBLIC "-//W3C//DTD SVG 1.1//EN" "http://www.w3.org/Graphics/SVG/1.1/DTD/svg11.dtd">
<svg width="100%" height="100%" viewBox="0 0 150 150" version="1.1" xmlns="http://www.w3.org/2000/svg" xmlns:xlink="http://www.w3.org/1999/xlink" xml:space="preserve" xmlns:serif="http://www.serif.com/" style="fill-rule:evenodd;clip-rule:evenodd;stroke-linejoin:round;stroke-miterlimit:2;">
    <path id="Congo" d="M63.071,13.615l0.009,-0.014c1.233,-1.796 4.076,-2.811 6.842,-2.783c2.552,0.026 5.005,0.941 6.082,2.819c1.856,-1.871 5.346,-2.932 7.724,-2.734c1.129,0.094 2.012,0.482 2.439,1.127c0.24,0.363 0.353,0.813 0.28,1.356c2.135,0.316 4.537,1.177 5.626,2.069c0.499,0.41 0.738,0.853 0.714,1.248c-0.012,0.191 -0.083,0.389 -0.236,0.58c2.143,0.59 4.131,2.24 5.465,3.923c1.04,1.311 1.676,2.645 1.731,3.506c0.032,0.509 -0.124,0.888 -0.421,1.111c-0.096,0.072 -0.21,0.13 -0.343,0.168c1.206,0.85 1.895,1.362 2.407,2.217c0.441,0.736 0.752,1.73 1.125,3.43c1.078,0.433 2.081,1.677 2.93,3.755c1.274,3.12 2.271,8.17 2.938,15.027c2.231,4.258 5.825,4.964 9.107,5.726c2.257,0.524 4.374,1.082 5.901,2.647c11.022,-4.038 22.165,4.972 25.841,15.65c0.002,0.004 0.003,0.008 0.004,0.013c0.884,2.864 1.144,11.722 0.443,15.327c-0.156,0.803 -0.382,1.366 -0.624,1.614c-0.197,0.202 -0.418,0.269 -0.647,0.23c-0.064,-0.011 -0.134,-0.034 -0.206,-0.072c1.143,4.985 1.413,7.9 1.262,9.654c-0.107,1.245 -0.428,1.949 -0.798,2.396c-0.355,0.429 -0.762,0.627 -1.122,0.814c0.4,2.222 0.718,4.653 0.753,6.831c0.037,2.354 -0.273,4.418 -1.115,5.662c1.811,3.554 2.484,7.859 1.233,12.752c-0.018,0.074 -0.058,0.141 -0.113,0.193c-3.269,3.077 -9.864,5.219 -16.904,5.719c-6.942,0.493 -14.307,-0.605 -19.314,-3.902c-3.824,3.244 -11.214,6.52 -20.586,7.321c-1.7,0.155 -3.51,0.222 -5.433,0.175c-3.909,-0.08 -8.075,-0.605 -12.405,-1.722c-0.236,0.043 -0.469,0.078 -0.698,0.104c-4.077,0.46 -12.745,2.194 -29.021,-2.834c-0.023,-0.007 -0.046,-0.017 -0.068,-0.028c-0.296,-0.156 -0.498,-0.297 -0.675,-0.407c-0.124,-0.078 -0.229,-0.14 -0.367,-0.166c-0.058,-0.01 -0.119,-0.015 -0.188,-0.015c-1.117,0.727 -2.559,1.176 -4.399,1.241c-1.384,0.354 -2.896,0.565 -4.487,0.664c-7.055,0.439 -15.67,-1.279 -21.287,-1.933c-0.016,0.012 -0.033,0.023 -0.05,0.032c-0.119,0.068 -0.339,0.112 -0.605,-0.099c-3.901,-0.242 -7.737,-0.683 -10.574,-5.025c-0.016,-0.024 -0.03,-0.051 -0.04,-0.078c-0.4,-1.068 -0.496,-3.438 -0.334,-6.113c0.241,-3.966 1.034,-8.608 2.094,-10.604c0.246,-0.463 0.518,-0.792 0.801,-0.986c-1.15,-1.212 -2.758,-3.771 -1.955,-7.924c-0.103,0.118 -0.199,0.214 -0.289,0.29c-0.315,0.267 -0.595,0.329 -0.81,0.291c-0.227,-0.04 -0.431,-0.187 -0.571,-0.475c-0.124,-0.256 -0.202,-0.662 -0.218,-1.188c-0.083,-2.755 1.441,-9.16 3.541,-12.447c-0.747,-0.297 -1.253,-0.749 -1.572,-1.305c-0.558,-0.976 -0.53,-2.311 -0.108,-3.789c0.781,-2.738 2.89,-6.003 4.454,-8.194c-0.064,0.017 -0.126,0.03 -0.184,0.039c-0.412,0.066 -0.717,-0.036 -0.929,-0.23c-0.3,-0.274 -0.437,-0.813 -0.29,-1.545c0.267,-1.332 1.438,-3.444 3.388,-5.368c2.812,-2.773 7.232,-5.169 12.793,-4.294c0.047,-0.662 0.404,-1.236 1.022,-1.757c0.684,-0.575 1.709,-1.092 2.957,-1.619c5.532,-2.342 15.634,-4.994 18.062,-15.925c0.002,-0.005 0.003,-0.011 0.005,-0.017c3.485,-12.863 5.376,-15.643 6.987,-17.611c0.018,-0.029 0.039,-0.053 0.059,-0.073c0.096,-0.116 0.191,-0.23 0.284,-0.343c0.478,-0.574 0.939,-1.134 1.424,-1.955c-0.139,0.012 -0.266,-0.007 -0.379,-0.048c-0.208,-0.075 -0.384,-0.23 -0.508,-0.47c-0.132,-0.255 -0.207,-0.628 -0.193,-1.092c0.08,-2.79 3.376,-9.461 12.339,-10.537Zm50.022,108.004c-4.405,5.443 -8.571,7.566 -12.727,9.117c-5.066,1.891 -12.845,3.181 -17.476,2.196c-1.435,1.108 -3.176,2.204 -4.959,3.054c-0.86,0.41 -1.729,0.763 -2.58,1.033c19.314,4.261 30.347,-2.603 34.595,-5.218c0.809,-0.498 1.39,-0.844 1.744,-0.957c0.061,-0.019 0.119,-0.033 0.174,-0.041l0.058,-0.052c2.036,-2.659 1.787,-6.358 1.171,-9.132Zm-63.157,-92.029c-1.432,2.023 -3.192,5.611 -6.103,16.35c-2.504,11.255 -12.833,14.071 -18.531,16.482c-1.159,0.491 -2.117,0.96 -2.752,1.495c-0.455,0.382 -0.731,0.794 -0.742,1.285l0,0c11.965,2.226 22.47,13.556 25.501,25.16c0.337,1.29 0.582,2.582 0.727,3.866c0.374,3.007 0.177,6.01 -0.773,8.869c-0.977,3.048 -2.755,5.846 -5.473,8.184c0.294,0.387 0.712,1.127 1.161,2.125c0.798,1.77 1.732,4.372 2.354,7.164c0.24,0.909 0.42,1.765 0.545,2.573c0.263,1.7 0.282,3.189 0.092,4.491c-0.039,0.475 -0.101,0.94 -0.187,1.389c-0.337,1.756 -1.046,3.291 -2.254,4.411c-0.022,0.02 -0.044,0.04 -0.067,0.061c0.026,0.013 0.051,0.027 0.077,0.042c0.186,0.108 0.386,0.258 0.704,0.429c16.069,4.957 24.629,3.246 28.657,2.791c0.236,-0.027 0.476,-0.063 0.72,-0.11l0.008,-0.001c1.273,-0.243 2.642,-0.741 3.986,-1.382c1.753,-0.836 3.463,-1.916 4.866,-3.004c0.491,-1.518 0.544,-3.752 0.339,-6.279c-0.043,-0.542 -0.099,-1.096 -0.166,-1.66c-0.599,-4.354 -1.98,-10.389 -4.731,-17.928c-5.484,0.785 -11.172,-0.631 -16.177,-4.506c-1.245,-0.965 -2.156,-2.491 -2.548,-4.764c-1.2,-0.19 -1.996,-1.04 -2.524,-2.08c-0.621,-1.224 -0.855,-2.71 -1.027,-3.433l-0.001,-0.001l-0.025,-0.031c-0.102,-0.035 -0.188,-0.093 -0.221,-0.176c-0.476,-0.208 -1.11,-0.63 -1.764,-1.288c-1.947,-1.961 -4.189,-6.052 -2.854,-12.479c-0.594,-0.453 -1.11,-0.956 -1.553,-1.5c-1.041,-1.278 -1.458,-2.77 -1.649,-4.379c-0.173,-1.462 -0.159,-3.023 -0.301,-4.596c-2.355,-1.098 -4.128,-4.223 -3.305,-8.197c-0.171,-0.033 -0.361,-0.146 -0.525,-0.418c-0.139,-0.231 -0.284,-0.624 -0.423,-1.229c-0.001,-0.005 -0.002,-0.01 -0.003,-0.016c-0.267,-1.414 0.254,-3.62 1.094,-5.636c0.782,-1.874 1.839,-3.577 2.734,-4.342c-0.712,-4.415 0.224,-8.06 1.455,-9.86c0.517,-0.756 1.104,-1.197 1.652,-1.317c0.008,-0.723 0.012,-1.697 0.015,-2.717c-0.035,-1.632 -0.025,-2.953 -0.008,-3.838Zm-8.941,82.246c-3.343,1.832 -6.874,3.072 -10.366,4.531c-6.02,3.039 -9.986,5.863 -12.612,8.317c-1.859,2.078 -3.587,4.647 -5.128,7.902c-0.051,0.24 -0.085,0.447 -0.112,0.62l-0.016,0.097c5.585,0.668 14.022,2.336 20.946,1.905c1.54,-0.096 3.005,-0.293 4.344,-0.632c0.009,-0.004 0.019,-0.008 0.029,-0.011c0.748,-0.247 1.375,-0.452 1.902,-0.619c1.835,-0.755 3.308,-1.89 4.229,-3.546c0.458,-0.823 0.778,-1.774 0.939,-2.868c0.032,-0.399 0.048,-0.805 0.05,-1.218c0.008,-1.763 -0.247,-3.631 -0.638,-5.424c-0.668,-2.573 -1.828,-5.569 -3.567,-9.054Zm70.167,-11.389c1.383,4.292 2.384,8.465 2.751,12.438c0.415,2.944 0.48,5.766 -0.206,7.857c0.756,2.975 1.2,7.276 -1.044,10.354c4.873,3.141 11.981,4.158 18.679,3.682c6.768,-0.481 13.127,-2.482 16.326,-5.425l0.001,-0.001c1.178,-4.717 0.487,-8.857 -1.3,-12.265c-1.813,-2.445 -2.678,-3.358 -5.642,-6.437c-3.09,-2.262 -6.716,-3.625 -10.042,-3.921c-1.995,-0.018 -3.839,-0.167 -5.535,-0.414c-3.596,-0.294 -7.025,-0.868 -9.692,-2.974c-1.725,-0.883 -3.046,-1.811 -3.981,-2.614c-0.11,-0.095 -0.215,-0.188 -0.315,-0.28Zm-63.922,-6.132c-0.091,-0.734 -0.217,-1.469 -0.376,-2.202c-1.464,-6.752 -5.662,-13.336 -10.355,-18.051c-5.238,-5.263 -11.481,-7.049 -14.026,-7.761c-0.465,-0.13 -0.811,-0.227 -1.014,-0.301c-0.072,-0.027 -0.132,-0.054 -0.18,-0.078c-5.452,-1.012 -9.779,1.312 -12.508,4.004c-1.807,1.782 -2.918,3.721 -3.166,4.956c-0.045,0.223 -0.06,0.419 -0.038,0.58c0.013,0.092 0.031,0.168 0.083,0.216c0.089,0.081 0.23,0.052 0.423,-0.006c0.338,-0.1 0.767,-0.341 1.297,-0.738c0.16,-0.119 0.383,-0.103 0.524,0.038c0.14,0.142 0.155,0.365 0.035,0.524c-1.423,1.875 -4.435,6.028 -5.39,9.377c-0.353,1.237 -0.434,2.356 0.034,3.172c0.295,0.516 0.817,0.892 1.608,1.102c0.128,0.034 0.23,0.128 0.275,0.252c0.044,0.124 0.024,0.262 -0.053,0.369c-2.169,2.996 -3.778,9.627 -3.695,12.403c0.008,0.253 0.03,0.472 0.069,0.648c0.018,0.078 0.057,0.171 0.082,0.225c0.048,-0.029 0.125,-0.079 0.183,-0.133c0.422,-0.392 0.985,-1.267 1.727,-2.75c0.096,-0.193 0.328,-0.275 0.524,-0.185c0.196,0.09 0.286,0.319 0.202,0.518c-2.661,6.346 0.196,9.675 1.312,10.605c0.048,0.022 0.095,0.048 0.142,0.078c0.242,0.153 0.348,0.263 0.37,0.295c0.061,0.087 0.072,0.164 0.075,0.213c0.005,0.103 -0.026,0.186 -0.073,0.253c-0.055,0.078 -0.14,0.153 -0.285,0.169c-0.031,0.003 -0.198,-0.001 -0.416,-0.147c-0.056,-0.038 -0.126,-0.088 -0.207,-0.152c-0.162,-0.032 -0.308,0.098 -0.46,0.29c-0.322,0.406 -0.613,1.084 -0.881,1.935c-0.927,2.937 -1.512,7.86 -1.492,11.32c0.008,1.408 0.111,2.568 0.348,3.233c2.628,3.987 6.185,4.387 9.789,4.614c0.13,-0.293 0.262,-0.58 0.395,-0.863c0.036,-0.161 0.077,-0.329 0.124,-0.5c0.444,-1.64 1.599,-4.298 5.089,-7.598c3.399,-3.836 7.228,-6.057 11.159,-7.822c0.61,-0.273 1.222,-0.536 1.836,-0.792c3.013,-1.52 6.526,-3.09 10.626,-4.69c2.869,-2.495 4.665,-5.323 5.613,-8.311c0.804,-2.629 0.994,-5.446 0.671,-8.309Zm53.772,-11.549c-0.17,0.493 -0.47,0.955 -0.778,1.167c-0.297,0.205 -0.604,0.234 -0.881,0.066c-0.58,5.225 -2.766,7.046 -3.821,7.841c-0.014,2.264 -0.321,4.046 -0.839,5.506c-0.289,0.906 -0.64,1.659 -1.027,2.135c-0.957,1.528 -2.206,2.653 -3.561,3.748c-0.008,0.006 -0.016,0.013 -0.025,0.019l-0.012,0.008c-1.684,1.379 -3.572,2.575 -5.179,3.257c-0.15,0.063 -0.297,0.122 -0.442,0.176c-0.284,0.13 -0.536,0.229 -0.754,0.296c-0.324,0.1 -0.59,0.132 -0.793,0.112c-0.525,0.068 -0.975,0.036 -1.32,-0.105c-0.12,-0.049 -0.209,-0.154 -0.238,-0.281c-0.03,-0.127 0.005,-0.26 0.092,-0.357c0.363,-0.403 0.668,-0.767 0.925,-1.106c-1.138,0.425 -2.296,0.751 -3.467,0.977c0.21,0.391 0.463,0.979 0.737,1.726c1.278,3.495 3.163,10.617 3.828,16.607c0.433,3.311 0.417,5.639 0.218,6.903c-0.049,0.314 -0.114,0.572 -0.186,0.773c4.55,0.797 11.814,-0.462 16.597,-2.247c4.183,-1.562 8.376,-3.718 12.827,-9.427c0.418,-2.506 0.451,-5.132 0.182,-7.854c-0.398,-2.642 -1.079,-5.374 -1.727,-7.733c-0.651,-2.375 -1.276,-4.377 -1.565,-5.544c-0.112,-0.452 -0.169,-0.797 -0.176,-1.012c-0.355,-0.74 -0.716,-1.478 -1.082,-2.215c-1.683,-2.604 -3.723,-6.462 -7.533,-13.436Zm47.502,8.033l0.017,-0.024c0.034,-0.052 0.066,-0.115 0.098,-0.188c0.102,-0.238 0.188,-0.564 0.265,-0.957c0.682,-3.511 0.439,-12.135 -0.421,-14.936c-3.568,-10.348 -14.362,-19.164 -25.042,-15.061c-1.857,0.789 -3.728,1.761 -5.605,2.846c-2.303,1.431 -5.186,3.414 -10.255,6.582l-0.011,0.008l-0.408,0.271l-0.346,0.229c-0.765,0.54 -1.423,1.101 -1.975,1.646c-0.018,0.152 -0.059,0.327 -0.123,0.513c-0.22,0.637 -0.702,1.458 -1.177,2.002c-0.116,0.156 -0.239,0.275 -0.363,0.36c-0.117,0.094 -0.233,0.165 -0.345,0.214c0.054,0.615 0.036,1.223 -0.032,1.814c-0.112,2.079 -0.579,4.09 -1.485,5.485c2.948,4.663 5.558,9.414 7.946,14.223c1.913,2.938 3.39,4.25 6.642,6.84c2.358,1.196 5.49,2.302 9.448,2.869c1.024,0.078 2.06,0.135 3.095,0.203c4.749,0.31 9.464,0.836 12.841,4.331c2.167,1.601 4.077,3.629 5.462,6.029c0.602,-1.154 0.788,-2.89 0.757,-4.835c-0.049,-3.048 -0.663,-6.6 -1.267,-9.347c-0.879,-3.016 -1.214,-4.382 -1.231,-4.6c-0.028,-0.339 0.229,-0.43 0.29,-0.448c0.095,-0.028 0.214,-0.032 0.34,0.055c0.026,0.018 0.132,0.113 0.211,0.332c0.173,0.48 0.653,2.163 1.143,4.374c0.165,0.573 0.35,1.203 0.554,1.891c0.176,-0.103 0.353,-0.232 0.512,-0.425c0.301,-0.363 0.531,-0.944 0.618,-1.955c0.183,-2.121 -0.283,-5.973 -2.189,-13.23c-0.103,-0.366 -0.209,-0.762 -0.317,-1.192c-0.054,-0.213 0.074,-0.429 0.286,-0.485c0.213,-0.055 0.43,0.071 0.488,0.283c0.113,0.421 0.223,0.832 0.328,1.234c0.401,1.423 0.75,2.328 1.058,2.813c0.059,0.095 0.143,0.185 0.193,0.236Zm-53.777,0.782c-0.003,0.019 -0.004,0.039 -0.004,0.059c0,0.214 -0.002,0.423 -0.007,0.627c-0.038,1.022 -0.166,2.102 -0.361,3.108c-0.086,0.443 -0.184,0.871 -0.295,1.274c-0.327,1.043 -0.764,1.919 -1.28,2.687c-0.752,1.042 -1.814,2.123 -2.997,3.116c-0.056,0.046 -0.113,0.092 -0.169,0.137l-0.009,0.008c-2.321,1.587 -4.196,2.77 -5.441,3.341c-0.425,0.161 -0.823,0.279 -1.183,0.344c-0.001,-0.015 -0.001,-0.031 0.001,-0.045c0.009,-0.086 0.034,-0.187 0.074,-0.303c0.086,-0.253 0.235,-0.566 0.448,-0.943c0.731,-1.158 0.917,-2.073 1.004,-3.286c0.061,-0.861 0.071,-1.881 0.209,-3.279c0.601,-0.929 0.829,-1.249 1.015,-1.603c0.232,-0.339 0.405,-0.689 0.505,-1.038c2.187,-0.067 3.588,-1.417 4.49,-2.988c0.843,-1.47 1.241,-3.129 1.463,-3.992c0.156,-0.103 0.299,-0.244 0.423,-0.421l-0,0.001c0.436,-0.346 0.78,-0.491 1.071,-0.41c0.291,0.081 0.481,0.377 0.638,0.777c0.276,0.703 0.401,1.709 0.405,2.829Zm-35.478,-6.481c-1.911,1.123 -3.351,3.294 -2.967,5.959c0.18,0.54 0.37,2.25 1.066,3.622c0.374,0.736 0.899,1.378 1.694,1.599c-0.071,-0.65 -0.103,-1.355 -0.094,-2.116c0.004,-0.393 0.27,-0.487 0.332,-0.501c0.102,-0.023 0.218,-0.016 0.334,0.071c0.04,0.029 0.126,0.112 0.181,0.274c0.117,0.345 0.321,1.575 0.223,2.295c-0.023,0.165 -0.063,0.307 -0.115,0.423c0.322,2.17 1.128,3.625 2.294,4.528c6.471,5.01 14.127,5.759 20.904,2.83c0.419,-0.814 0.544,-1.532 0.609,-2.436c0.058,-0.808 0.07,-1.755 0.184,-3.018c-0.61,0.445 -1.277,0.835 -1.928,1.138c-0.981,0.457 -1.925,0.71 -2.579,0.683c-0.47,-0.02 -0.817,-0.185 -1.015,-0.453c-0.083,-0.111 -0.145,-0.246 -0.175,-0.406c-1.685,0.759 -3.536,0.897 -4.757,0.727c-0.672,-0.094 -1.168,-0.296 -1.401,-0.514c-0.187,-0.176 -0.259,-0.376 -0.244,-0.574c0.006,-0.079 0.026,-0.162 0.067,-0.246c-2.603,-0.104 -3.944,-0.52 -4.795,-1.121c-0.945,-0.668 -1.29,-1.583 -2.066,-2.642c-0.303,-0.107 -0.624,-0.236 -0.947,-0.388c-1.339,-0.46 -2.205,-1.223 -2.65,-2.237c-0.2,-0.381 -0.324,-0.797 -0.343,-1.25c-0.768,-0.448 -1.307,-1.165 -1.63,-2.06c-0.422,-1.169 -0.468,-2.65 -0.182,-4.187Zm13.418,14.176c0.116,-0.073 0.342,-0.205 0.583,-0.287c0.185,-0.062 0.297,-0.25 0.265,-0.443c-0.031,-0.193 -0.198,-0.335 -0.393,-0.335c-3.18,-0.009 -4.691,-0.363 -5.593,-1.001c-0.724,-0.511 -1.052,-1.191 -1.547,-1.966c2.338,0.262 5.59,-0.049 9.848,-1.033c1.683,0.01 3.441,0.443 5.133,0.848c1.536,0.369 3.02,0.713 4.354,0.739c-0.108,0.265 -0.187,0.446 -0.272,0.612l-0.002,0.004c-1.05,1.504 -3.416,2.854 -4.977,3.173c-0.281,0.057 -0.534,0.081 -0.742,0.057c-0.129,-0.015 -0.237,-0.039 -0.301,-0.112c-0.092,-0.104 -0.062,-0.268 0.011,-0.5c0.05,-0.157 -0.002,-0.328 -0.13,-0.431c-0.128,-0.104 -0.306,-0.118 -0.449,-0.036c-1.703,0.97 -3.732,1.143 -4.978,0.951c-0.317,-0.05 -0.58,-0.121 -0.763,-0.213c-0.015,-0.007 -0.031,-0.017 -0.047,-0.027Zm17.163,-11.162c-0.08,2.077 -0.622,3.349 -1.43,4.093c-0.911,0.841 -2.185,1.045 -3.639,0.917c-1.989,-0.176 -4.335,-0.971 -6.443,-1.302c-2.673,0.185 -4.364,0.037 -6.552,-0.154c-2.451,0.603 -4.137,0.85 -5.336,0.819c-0.873,-0.021 -1.505,-0.189 -1.993,-0.463c-0.624,-0.35 -1.022,-0.874 -1.362,-1.542c-0.204,-0.401 -0.387,-0.856 -0.601,-1.353c-0.388,0.825 -0.636,1.594 -0.614,1.953c0.028,0.426 0.115,0.816 0.265,1.167c0.444,0.821 1.343,1.421 2.228,1.842c2.256,0.758 5.968,0.576 11.341,-0.67c0.03,-0.007 0.061,-0.01 0.091,-0.01c1.758,0.002 3.597,0.447 5.365,0.871c1.694,0.406 3.321,0.796 4.738,0.704c0.008,-0 0.016,-0 0.024,-0l0.014,-0c2.036,0.057 3.297,-1.176 4.107,-2.587c0.682,-1.19 1.053,-2.511 1.278,-3.386c-0.143,-0.017 -0.294,-0.057 -0.45,-0.123c-0.313,-0.133 -0.662,-0.382 -1.031,-0.776Zm-26.739,-0.071c0.031,0.08 0.07,0.162 0.117,0.244c0.307,0.536 0.987,1.132 2.532,1.439c1.845,0.367 5.031,0.34 10.511,-0.691c4.065,1.029 6.87,1.311 8.809,1.198c2.066,-0.119 3.195,-0.69 3.83,-1.292c0.031,-0.03 0.061,-0.06 0.09,-0.091c-0.142,1.342 -0.53,2.223 -1.122,2.769c-0.813,0.75 -1.985,0.832 -3.304,0.68c-1.926,-0.222 -4.152,-0.966 -6.162,-1.275c-0.03,-0.004 -0.059,-0.005 -0.089,-0.003c-2.672,0.188 -4.344,0.035 -6.535,-0.156c-0.044,-0.004 -0.088,-0 -0.131,0.01c-1.997,0.495 -3.471,0.75 -4.582,0.804c-1.029,0.05 -1.723,-0.07 -2.227,-0.353c-0.483,-0.271 -0.777,-0.69 -1.04,-1.207c-0.275,-0.54 -0.512,-1.181 -0.837,-1.891c0.079,-0.124 0.098,-0.138 0.14,-0.185Zm37.405,-33.755c-2.871,-3.869 -5.432,-9.24 -5.253,-12.877c-0.493,-1.954 -0.904,-4.915 -1.94,-7.917c-1.024,-2.969 -2.664,-5.986 -5.643,-8.068c-2.46,-1.719 -5.828,-2.795 -10.498,-2.705c0.412,5.837 0.758,12.92 0.612,15.019c1.43,-0.181 2.806,-0.357 4.036,-0.322c1.486,0.042 2.768,0.395 3.719,1.348c0.748,0.751 1.3,1.884 1.557,3.575c3.531,-0.27 4.376,-0.148 3.895,0.083c0.342,0.112 0.021,0.278 -1.451,0.47c0.607,0.265 1.11,0.626 1.521,1.072c0.865,0.937 1.324,2.264 1.425,3.916c0.368,0.116 2.497,0.949 3.449,3.348c0.632,1.593 0.755,3.899 -0.595,7.174c0.075,0.121 0.162,0.243 0.227,0.373c0.091,0.182 0.147,0.377 0.139,0.587c-0.157,4.076 -1.846,6.644 -4.143,9.136c-1.448,1.57 -3.142,3.112 -4.831,5.007l0.036,0.138l0.041,0.151c0.007,0.017 0.013,0.035 0.018,0.052c0.233,0.836 0.178,1.648 0.285,2.378c0.04,0.278 0.099,0.82 0.135,1.318c3.974,2.003 5.632,5.52 5.873,8.068c0.057,0.601 0.034,1.151 -0.055,1.622c0.315,-0.097 0.597,-0.098 0.845,-0.029c0.495,0.138 0.898,0.573 1.166,1.254c0.241,0.612 0.38,1.44 0.43,2.373c1.173,-1.021 2.967,-3.228 3.172,-8.571c-0.041,-0.507 -0.045,-1.156 0.005,-1.976c0.013,-0.213 0.192,-0.379 0.406,-0.375c0.214,0.003 0.387,0.174 0.394,0.388c0.02,0.695 0.018,1.35 -0.004,1.965c0.024,0.271 0.062,0.493 0.11,0.672c0.031,0.119 0.067,0.214 0.108,0.289c0.013,0.024 0.034,0.051 0.049,0.068c0.019,-0.01 0.046,-0.025 0.064,-0.04c0.064,-0.052 0.126,-0.124 0.184,-0.207c0.201,-0.285 0.356,-0.694 0.362,-1.038c-0,-0.009 0,-0.018 0.001,-0.028c0.012,-0.131 0.037,-0.275 0.073,-0.431l0.003,-0.024c0.002,-0.01 0.004,-0.019 0.006,-0.028l0.008,-0.025l0.005,-0.014c0.146,-0.587 0.431,-1.331 0.726,-2.181c0.035,-0.192 0.068,-0.389 0.099,-0.589c0.267,-1.714 0.395,-3.644 0.7,-4.737l-0.018,-0.107c-0.006,-0.036 -0.013,-0.072 -0.019,-0.108l-0.015,-0.077c-0.17,-0.311 -0.34,-0.801 -0.492,-1.519c-0.043,-0.199 0.072,-0.399 0.265,-0.463c0.193,-0.064 0.404,0.028 0.489,0.213c0.138,0.299 0.251,0.598 0.343,0.898c0.292,-0.468 0.694,-1.007 1.208,-1.575l0.051,-0.171c0.016,-0.058 0.033,-0.117 0.05,-0.176l0.048,-0.17c0.004,-0.037 0.014,-0.073 0.029,-0.106c0.241,-0.893 0.412,-1.715 0.466,-2.026l0.001,-0.012c0.416,-4.092 -1.165,-8.852 -3.846,-14.22l-0.025,-0.035l-0.006,-0.008Zm-43.857,0.998c-3.118,1.387 -4.305,2.623 -6.504,5.165c-0.194,0.281 -0.377,0.567 -0.549,0.856c-1.112,1.87 -1.74,3.859 -1.572,5.541c0.165,1.646 0.14,3.284 0.322,4.814c0.172,1.455 0.532,2.812 1.474,3.968l-0,-0c0.343,0.422 0.735,0.816 1.178,1.179c0.155,-0.437 0.333,-0.883 0.536,-1.339c0.103,-0.233 0.186,-0.328 0.205,-0.345c0.165,-0.143 0.319,-0.107 0.413,-0.069c0.064,0.025 0.296,0.137 0.247,0.447c-0.011,0.07 -0.108,0.368 -0.24,0.733c-0.219,0.604 -0.531,1.405 -0.627,1.584c-1.246,6.035 0.812,9.887 2.643,11.73c0.435,0.439 0.849,0.763 1.193,0.966c-0.215,-1.849 0.666,-3.706 1.787,-4.96c0.768,-0.86 1.653,-1.424 2.365,-1.561c0.884,-3.098 3.052,-6.156 6.006,-7.116c0.105,-0.568 0.259,-1.085 0.45,-1.729c-2.134,-2.572 -4.916,-4.675 -6.823,-6.998c-2.04,-2.485 -3.113,-5.212 -1.541,-8.943c0.115,-0.272 0.235,-0.529 0.361,-0.773c-0.554,-1.203 -1.115,-2.213 -1.324,-3.15Zm8.748,22.49c-0.017,0.25 -0.027,0.52 -0.029,0.702c-0.838,1.278 -1.86,3.228 -2.341,5.046c-0.32,1.209 -0.392,2.363 -0.064,3.253c-0.289,0.37 -0.561,0.795 -0.804,1.233c-0.478,0.861 -0.833,1.776 -0.994,2.433c-0.598,-0.476 -0.968,-1.205 -1.152,-2.065c-0.244,-1.148 -0.155,-2.527 0.208,-3.914c0.732,-2.8 2.579,-5.648 5.176,-6.688Zm15.695,-10.628c-0.5,-0.079 -1.164,-0.12 -2.177,0.343l-0.004,0.002c-0.205,0.092 -0.82,0.211 -1.364,0.338c-0.29,0.068 -0.556,0.129 -0.675,0.205l-0.001,0.001c-0.15,0.096 -0.28,0.088 -0.38,0.057c-0.077,-0.024 -0.161,-0.072 -0.225,-0.159c-0.283,-0.164 -0.55,-0.301 -0.805,-0.414c-1.117,-0.297 -1.824,-0.433 -2.37,-0.356c-0.369,0.093 -0.675,0.267 -0.933,0.475c-0.231,0.209 -0.467,0.479 -0.744,0.811c1.072,-0.067 2.106,0.369 2.945,1.232c1.619,1.665 2.513,5.003 1.32,9.325c-0.031,0.115 -0.113,0.21 -0.221,0.259c-1.066,0.479 -1.765,0.483 -2.218,0.265c-0.318,-0.153 -0.542,-0.413 -0.691,-0.758c-0.18,-0.414 -0.247,-0.965 -0.276,-1.554c-0.036,-0.718 -0.017,-1.498 -0.167,-2.099c-0.109,-0.434 -0.316,-0.76 -0.817,-0.764c-0.582,-0.003 -0.924,0.081 -1.096,0.306c-0.171,0.224 -0.155,0.544 -0.115,0.911c0.11,1.017 0.507,2.318 0.148,3.438c-0.075,0.234 -0.287,0.486 -0.616,0.702c-0.599,0.392 -1.612,0.703 -2.464,0.728c-0.76,0.022 -1.375,-0.201 -1.637,-0.666c-0.665,1.146 -1.348,2.588 -1.709,3.952c-0.294,1.113 -0.385,2.17 -0.015,2.942c0.051,0.108 0.052,0.23 0.005,0.336l-0.003,0.022c-0.013,0.114 -0.061,0.366 0.034,0.656c0.114,0.349 0.439,0.727 1.204,1.014c0.9,0.339 2.344,0.532 4.644,0.406c1.688,-0.093 3.825,-0.359 6.53,-0.871c0.057,-0.011 0.117,-0.009 0.173,0.005c4,1.019 6.753,1.307 8.652,1.197c1.786,-0.104 2.776,-0.554 3.325,-1.075c0.539,-0.511 0.617,-1.075 0.659,-1.327c0.011,-0.067 0.025,-0.124 0.04,-0.171c0.395,-2.065 -0.242,-3.083 -0.938,-4.132c-0.581,-0.873 -1.197,-1.765 -1.423,-3.163c-0.026,0.022 -0.054,0.044 -0.084,0.066c-0.505,0.373 -1.379,0.645 -2.149,0.699c-0.471,0.033 -0.904,-0.019 -1.204,-0.152c-0.288,-0.128 -0.476,-0.329 -0.553,-0.584c-0.031,-0.103 -0.019,-0.215 0.034,-0.31c0.632,-1.133 1.161,-2.941 0.889,-4.206c-0.077,-0.359 -0.22,-0.671 -0.467,-0.888c-0.245,-0.215 -0.589,-0.329 -1.044,-0.326c-0.521,0.003 -0.84,0.356 -1.091,0.828c-0.315,0.59 -0.518,1.364 -0.736,2.096c-0.192,0.642 -0.396,1.253 -0.672,1.713c-0.247,0.412 -0.555,0.71 -0.938,0.853c-0.382,0.143 -0.851,0.14 -1.438,-0.11c-0.114,-0.049 -0.198,-0.148 -0.23,-0.268c-1.314,-5.07 0.889,-8.781 3.425,-10.052c0.737,-0.369 1.504,-0.537 2.235,-0.486c-0.265,-0.338 -0.489,-0.612 -0.709,-0.824c-0.239,-0.204 -0.521,-0.376 -0.863,-0.468Zm8.769,19.716c0.394,-2.261 -0.306,-3.403 -1.085,-4.576c-0.638,-0.961 -1.339,-1.944 -1.376,-3.754c2.805,1.599 4.247,4.033 4.746,6.105c0.328,1.36 0.264,2.555 -0.125,3.203c-0.126,0.106 -0.256,0.225 -0.391,0.359c-0.182,0.056 -0.394,0.002 -0.634,-0.145c-0.347,-0.212 -0.726,-0.601 -1.135,-1.193l-0,0.001Zm-23.685,-8.541c-0.003,0.09 -0.006,0.184 -0.007,0.28c-0.003,0.197 -0.002,0.406 0.003,0.632c0.004,0.18 0.13,0.275 0.296,0.332c0.184,0.063 0.411,0.083 0.655,0.075c0.611,-0.017 1.321,-0.209 1.828,-0.47c0.152,-0.079 0.285,-0.163 0.386,-0.252c0.059,-0.052 0.11,-0.099 0.127,-0.153c0.153,-0.478 0.133,-0.995 0.069,-1.5c-0.071,-0.566 -0.197,-1.12 -0.25,-1.607c-0.065,-0.602 -0.006,-1.115 0.274,-1.482c0.279,-0.365 0.793,-0.626 1.737,-0.621c0.384,0.003 0.683,0.105 0.918,0.272c0.337,0.238 0.551,0.621 0.67,1.098c0.162,0.645 0.151,1.482 0.19,2.253c0.02,0.41 0.054,0.8 0.153,1.118c0.071,0.23 0.17,0.421 0.362,0.513c0.292,0.141 0.72,0.075 1.371,-0.199c1.02,-3.871 0.288,-6.87 -1.173,-8.371c-0.911,-0.938 -2.11,-1.256 -3.282,-0.757c-0.519,0.221 -1.031,0.597 -1.514,1.137c-0.553,0.619 -1.066,1.448 -1.506,2.505c-0.372,0.948 -0.577,1.772 -0.681,2.054l-0,0.001l0.001,-0.005c-0.236,0.797 -0.421,1.379 -0.529,2.075c-0.021,0.136 -0.039,0.276 -0.054,0.423c-0.016,0.2 -0.034,0.452 -0.044,0.649Zm19.896,-4.222l-0.015,-0.038c0.223,0.801 0.161,1.58 0.263,2.278c0.058,0.399 0.155,1.368 0.163,1.904c0,0.048 -0.013,0.053 -0.027,0.092c-0.028,0.075 -0.067,0.19 -0.114,0.408c-0.032,0.143 -0.196,0.247 -0.388,0.356c-0.419,0.237 -1.02,0.396 -1.556,0.433c-0.276,0.019 -0.534,0.007 -0.735,-0.053c-0.04,-0.012 -0.078,-0.022 -0.111,-0.035c0.655,-1.287 1.14,-3.187 0.85,-4.534c-0.115,-0.539 -0.351,-0.996 -0.721,-1.321c-0.373,-0.327 -0.885,-0.53 -1.577,-0.525c-0.68,0.004 -1.176,0.334 -1.554,0.864c-0.474,0.664 -0.75,1.677 -1.035,2.632c-0.171,0.571 -0.345,1.119 -0.591,1.529c-0.144,0.241 -0.308,0.432 -0.532,0.516c-0.184,0.068 -0.401,0.059 -0.663,-0.028c-0.931,-3.852 0.319,-6.835 2.129,-8.328c1.156,-0.954 2.537,-1.295 3.66,-0.787c0.485,0.22 0.963,0.595 1.415,1.132c0.141,0.168 0.275,0.509 0.409,0.902c0.227,0.665 0.43,1.473 0.562,2c0.073,0.293 0.135,0.51 0.168,0.603Zm-13.817,-15.841c0.998,0.395 2.096,0.662 3.046,0.687c0.59,0.016 1.124,-0.065 1.562,-0.251c-0.015,1.066 -0.242,3.639 -0.347,5.543c-0.101,-0.143 -0.216,-0.281 -0.348,-0.411c-0.849,-0.837 -2.439,-1.394 -5.286,-1.138c-0.178,0.016 -0.624,0.191 -1.104,0.657c-0.923,0.896 -2.12,2.936 -1.513,6.877c-0.688,0.757 -1.179,1.729 -1.523,2.603c-0.179,0.431 -0.347,0.897 -0.501,1.4l-0,-0c-2.081,-2.386 -4.667,-4.386 -6.47,-6.583c-1.854,-2.259 -2.85,-4.733 -1.422,-8.124c0.133,-0.316 0.273,-0.608 0.421,-0.88l0.003,-0.005c0.304,-0.581 0.995,-2.268 4.252,-3.041c-0.198,0.423 -0.337,0.939 -0.402,1.497c-0.11,0.935 -0.031,1.979 0.243,2.812c0.2,0.608 0.508,1.106 0.904,1.404c1.457,1.098 3.569,1.557 5.011,0.744c0.108,-0.061 1.889,-1.052 2.834,-2.191c0.431,-0.52 0.685,-1.078 0.64,-1.6Zm22.28,0.35l0.003,0.005c0.063,0.123 0.149,0.247 0.229,0.374c0.068,0.108 0.144,0.215 0.139,0.344c-0.148,3.852 -1.76,6.27 -3.932,8.625c-1.34,1.454 -2.891,2.884 -4.454,4.591c-0.076,-0.365 -0.166,-0.771 -0.29,-1.158c-0.14,-0.438 -0.325,-0.851 -0.569,-1.171c0.5,-3.376 -0.053,-5.28 -1.02,-6.355c-0.686,-0.762 -1.589,-1.13 -2.541,-1.293c-1.877,-0.321 -3.15,-0.064 -4.013,0.441c-0.28,0.165 -0.518,0.356 -0.722,0.565c0.115,-1.717 0.282,-3.879 0.311,-4.816c0.006,-0.02 0.011,-0.041 0.014,-0.065c0.001,-0.005 0.005,-0.032 0.001,-0.088c0.401,0.234 0.9,0.341 1.459,0.335c0.938,-0.011 2.052,-0.342 3.062,-0.825c-0.032,0.729 0.246,1.392 0.68,1.962c0.831,1.091 2.248,1.824 2.922,2.008c0.75,0.205 1.858,0.213 2.921,-0.068c1.087,-0.288 2.12,-0.877 2.705,-1.824c0.532,-0.859 0.502,-2.043 0.138,-3.122c-0.185,-0.549 -0.456,-1.069 -0.769,-1.501c0.145,0.033 0.286,0.069 0.421,0.109c0.647,0.195 1.343,0.502 1.945,0.977c0.908,0.745 1.186,1.597 1.36,1.95Zm8.079,-26.026c0.076,1.58 0.007,3.369 -0.14,5.228c-0.034,0.59 -0.073,1.012 -0.109,1.96c0.166,-0.169 0.321,-0.298 0.466,-0.391c0.318,-0.203 0.608,-0.256 0.863,-0.211c0.392,0.069 0.748,0.396 0.997,0.986c0.469,1.109 0.645,3.271 0.639,5.644c0,0.009 -0,0.017 -0.001,0.025c-0.235,3.69 -1.012,6.006 -2.001,7.29c-0.561,0.728 -1.195,1.144 -1.852,1.311c2.631,5.359 4.126,10.128 3.7,14.233c-0.001,0.009 -0.002,0.018 -0.003,0.027c-0.035,0.203 -0.124,0.634 -0.252,1.167l0.3,-0.195c0.192,-0.127 0.385,-0.254 0.577,-0.38l0.558,-0.369c0.253,-0.179 0.516,-0.354 0.791,-0.526l0.004,-0.002c3.438,-2.289 6.896,-4.643 10.332,-6.625c1.797,-1.115 3.244,-1.897 5.087,-2.643c-0.806,-0.734 -1.775,-1.192 -2.83,-1.541c-1.299,-0.43 -2.727,-0.693 -4.158,-1.059c-2.979,-0.761 -5.966,-1.957 -7.946,-5.795c-0.023,-0.045 -0.037,-0.094 -0.042,-0.145c-0.657,-6.791 -1.63,-11.793 -2.89,-14.878c-0.635,-1.556 -1.319,-2.611 -2.09,-3.111Zm-26.336,33.38c-0.112,-1.523 -1.278,-2.839 -5.315,-2.478c-0.012,0.004 -0.073,0.026 -0.116,0.049c-0.139,0.072 -0.319,0.198 -0.512,0.386c-0.78,0.758 -1.71,2.442 -1.358,5.593c0.366,-0.314 0.743,-0.554 1.121,-0.726l0.12,-0.144c0.056,-0.068 0.112,-0.136 0.168,-0.204l0.303,-0.368c0.251,-0.342 0.557,-0.721 0.949,-1.04c0.405,-0.364 0.8,-0.574 1.299,-0.653c0.722,-0.172 1.633,-0.119 2.798,0.389c0.109,0.036 0.256,0.11 0.409,0.169c0.022,0.009 0.052,0.017 0.08,0.025c0.017,-0.11 0.033,-0.208 0.039,-0.273l0.001,-0.015c-0.018,-0.209 -0.01,-0.459 0.014,-0.71Zm8.676,3.505c0.304,-2.632 -0.104,-4.176 -0.908,-5.069c-0.559,-0.622 -1.304,-0.907 -2.081,-1.04c-1.622,-0.277 -2.727,-0.094 -3.473,0.344c-0.694,0.407 -1.056,1.031 -1.243,1.641c-0.047,0.363 -0.128,0.897 -0.175,1.295c0.097,0.257 0.363,0.293 0.612,0.288c0.38,-0.007 0.763,-0.129 0.922,-0.176c1.102,-0.509 1.965,-0.561 2.649,-0.388c0.475,0.08 0.852,0.292 1.238,0.661c0.368,0.319 0.656,0.699 0.892,1.041l0.284,0.367c0.053,0.068 0.106,0.137 0.159,0.205l0.11,0.141c0.342,0.166 0.682,0.394 1.014,0.69Zm-38.418,-20.646c-0.6,0.815 -1.209,1.948 -1.71,3.149c-0.772,1.852 -1.289,3.871 -1.046,5.18c0.078,0.335 0.154,0.593 0.231,0.784c0.018,0.044 0.04,0.087 0.061,0.127c0.056,-0.087 0.134,-0.212 0.21,-0.349c0.252,-0.757 0.598,-1.539 1.05,-2.338c0.064,-0.121 0.128,-0.232 0.193,-0.33c0.119,-0.182 0.362,-0.235 0.546,-0.119c0.185,0.115 0.243,0.357 0.131,0.544c-0.069,0.115 -0.136,0.231 -0.2,0.345c-0.247,0.476 -0.482,1.102 -0.713,1.647c-0.094,0.221 -0.189,0.43 -0.282,0.616c-1.216,3.798 0.099,6.899 2.179,8.143c0.008,-1.855 0.831,-4.443 1.987,-5.887c-0.313,-0.233 -0.548,-0.595 -0.685,-1.077c-0.462,-0.864 -0.868,-2.097 -1.188,-3.449c-0.559,-2.36 -0.86,-5.086 -0.774,-6.809c0.003,-0.061 0.006,-0.12 0.01,-0.177Zm18.559,6.663c-0.231,-0.041 -0.416,-0.069 -0.542,-0.087c-0.087,-0.012 -0.234,-0.015 -0.427,-0.006c-0.124,0.095 -0.228,0.236 -0.319,0.404c-0.199,0.367 -0.327,0.857 -0.389,1.387c-0.097,0.821 -0.032,1.738 0.208,2.469c0.143,0.434 0.342,0.802 0.625,1.015c1.207,0.909 2.944,1.359 4.137,0.686c0.1,-0.056 1.743,-0.958 2.611,-2.005c0.285,-0.343 0.496,-0.692 0.458,-1.034c-0.023,-0.199 -0.145,-0.382 -0.371,-0.557c-0.089,-0.069 -0.181,-0.136 -0.275,-0.201l-0.096,-0.058c-0.019,0.389 -0.213,0.783 -0.545,1.142c-0.549,0.595 -1.49,1.104 -2.42,1.336c-0.643,0.161 -1.28,0.187 -1.782,0.042c-0.427,-0.122 -1.168,-0.614 -1.68,-1.264c-0.362,-0.458 -0.605,-0.991 -0.595,-1.512c0.011,-0.609 0.364,-1.264 1.402,-1.757Zm24.205,-0.114c0.561,0.32 0.86,0.701 0.987,1.083c0.206,0.622 -0.017,1.309 -0.454,1.916c-0.593,0.825 -1.563,1.491 -2.021,1.631c-0.477,0.145 -1.081,0.121 -1.691,-0.04c-0.874,-0.23 -1.76,-0.736 -2.284,-1.329c-0.312,-0.354 -0.498,-0.742 -0.523,-1.127l-0.051,0.032c-0.025,0.018 -0.053,0.035 -0.081,0.051l-0.073,0.046c-0.242,0.743 -0.001,1.41 0.419,1.961c0.711,0.934 1.921,1.564 2.497,1.722c0.643,0.176 1.593,0.171 2.506,-0.071c0.889,-0.235 1.75,-0.695 2.229,-1.47c0.416,-0.673 0.345,-1.601 0.06,-2.446c-0.278,-0.824 -0.768,-1.58 -1.299,-1.954c-0.084,-0.004 -0.158,-0.006 -0.221,-0.005Zm-13.313,-32.605c-8.291,0.5 -12.134,4.471 -14.836,9.929c-1.881,3.801 -3.218,8.309 -5.088,12.877c-0.019,0.046 -0.046,0.088 -0.08,0.124c-2.782,2.922 -4.652,5.802 -5.722,8.216c-0.011,0.044 -0.029,0.085 -0.053,0.122c-0.709,1.63 -1.049,3.041 -1.057,4.102c-0.002,0.304 0.023,0.576 0.079,0.81c0.162,0.296 0.326,0.54 0.499,0.707c1.747,-2.399 4.222,-4.439 6.829,-5.24c-0.007,-2.297 1.421,-4.13 2.663,-5.255c0.837,-0.758 1.598,-1.189 1.786,-1.264c0.107,-1.654 0.595,-2.983 1.517,-3.922c0.436,-0.445 0.972,-0.806 1.617,-1.07c-1.341,-0.177 -1.629,-0.333 -1.299,-0.442c-0.482,-0.229 0.363,-0.356 3.898,-0.102c0.273,-1.697 0.86,-2.833 1.659,-3.585c0.811,-0.764 1.847,-1.141 3.042,-1.279c1.584,-0.183 3.456,0.058 5.416,0.289c0.002,-0.336 -0.001,-0.863 -0.024,-1.428c-0.121,-2.946 -0.516,-8.704 -0.846,-13.589Zm-9.36,33.049c0.881,0.224 1.908,0.545 2.865,0.994c0.277,0.197 0.419,0.395 0.425,0.611c0.006,0.234 -0.134,0.46 -0.334,0.677c-0.459,0.496 -1.251,0.909 -2.027,1.103c-0.494,0.123 -0.982,0.16 -1.368,0.049c-0.327,-0.093 -0.879,-0.492 -1.272,-0.99c-0.242,-0.307 -0.43,-0.653 -0.423,-1.002c0.005,-0.259 0.133,-0.508 0.416,-0.736c0.35,-0.282 0.902,-0.521 1.716,-0.706l0.002,-0Zm21.158,-0.165l0,-0c1.065,0.259 1.594,0.608 1.742,1.056c0.131,0.393 -0.067,0.813 -0.343,1.197c-0.477,0.662 -1.238,1.22 -1.606,1.332c-0.354,0.108 -0.801,0.072 -1.253,-0.047c-0.72,-0.19 -1.457,-0.596 -1.888,-1.085c-0.225,-0.255 -0.373,-0.526 -0.315,-0.8c0.037,-0.176 0.16,-0.341 0.366,-0.502l0.016,-0.011l0.019,-0.01c0.198,-0.094 0.838,-0.381 1.894,-0.725c0.491,-0.158 0.964,-0.295 1.331,-0.395l0.037,-0.01Zm1.889,-1.066l0.005,-0c0.457,0.031 1.094,0.124 1.777,0.33c0.977,0.283 1.691,0.689 2.221,1.122c0.461,0.365 0.874,0.814 1.193,1.365c0.954,-2.635 0.855,-4.531 0.321,-5.877c-0.851,-2.144 -2.784,-2.841 -2.941,-2.88c-0.059,-0.014 -0.121,-0.027 -0.187,-0.039l0.001,-0c-0.039,-0.001 -0.096,-0.002 -0.166,-0.004c-4.351,-0.08 -7.846,0.569 -10.102,1.507c-1.395,0.579 -2.306,1.24 -2.576,1.926c-0.688,1.746 -1.179,3.158 -1.374,5.169c0.043,0.086 0.08,0.195 0.088,0.312c0.005,0.089 -0.004,0.178 -0.028,0.26c0.035,0.033 0.077,0.063 0.124,0.091c0.157,0.095 0.364,0.161 0.607,0.2c0.837,0.134 2.057,-0.066 3.32,-0.778c0.386,-0.218 0.645,-0.383 1.323,-0.731c0.001,-0.001 0.003,-0.002 -0.003,0.002l0.02,-0.013c0.012,-0.008 0.023,-0.015 0.034,-0.021l-0.022,0.013c0.023,-0.014 0.418,-0.246 0.59,-0.337c0.051,-0.028 0.135,-0.071 0.198,-0.103l0.006,-0.003c0.033,-0.017 0.06,-0.03 0.072,-0.035c0.548,-0.269 1.291,-0.539 1.995,-0.766l0.001,-0c0.393,-0.128 0.842,-0.264 1.345,-0.4c0.056,-0.015 0.109,-0.03 0.16,-0.043l0.16,-0.042c0.756,-0.194 0.872,-0.173 1.183,-0.219c0.125,-0.018 0.354,-0.026 0.655,-0.006Zm-12.68,2.625l-0.009,0.015c-0.071,0.124 -0.113,0.306 -0.067,0.479c-0.045,0.034 -0.1,0.065 -0.16,0.097c-0.201,0.105 -0.467,0.182 -0.776,0.23c-1.012,0.156 -2.464,-0.012 -3.822,-0.732c-0.408,-0.216 -0.935,-0.562 -1.66,-0.913c-0.061,-0.047 -0.123,-0.097 -0.183,-0.146c-0.022,-0.026 -0.05,-0.052 -0.085,-0.077c-0.08,-0.057 -1.1,-0.618 -3.508,-1.148c-0.944,-0.235 -1.714,-0.36 -2.062,-0.408c-0.132,-0.019 -0.373,-0.026 -0.69,-0.006l-0.002,-0c-1.383,0.087 -4.264,0.707 -5.555,2.904c-0.52,-1.063 -0.996,-1.96 -1.048,-2.818l-0,0c-0.133,-2.173 1.237,-3.89 2.391,-4.935c0.664,-0.602 1.43,-1.06 1.488,-1.095c0.056,-0.013 0.114,-0.024 0.175,-0.034c0.047,-0.002 0.108,-0.003 0.185,-0.005c4.636,-0.08 8.361,0.571 10.766,1.51c1.489,0.581 2.461,1.242 2.75,1.931c0.725,1.731 1.633,3.164 1.872,5.151Zm-29.487,-4.779c0.132,1.055 0.327,2.16 0.571,3.193c0.115,0.485 0.241,0.954 0.376,1.394c0.146,-0.878 0.446,-1.901 0.915,-3.027c-0.561,-0.292 -1.171,-0.518 -1.656,-1.218c-0.071,-0.103 -0.14,-0.216 -0.206,-0.342Zm22.631,3.686c-0.064,-0.026 -0.119,-0.03 -0.162,-0.027c0.054,-0.002 0.109,0.006 0.162,0.027Zm18.806,-8.255c-0.214,-0.222 -0.504,-0.392 -0.848,-0.527c-0.624,-0.244 -1.414,-0.363 -2.292,-0.404c-2.749,-0.127 -6.316,0.532 -8.462,0.916l-0.01,0.002l-0.019,0.002c-0.025,0.022 -0.041,0.036 -0.041,0.036c-0.022,-0 -0.131,-0.016 -0.163,-0.022l0,0l-0.002,-0c-2.657,-0.447 -7.371,-1.273 -10.365,-0.788c-0.866,0.141 -1.585,0.375 -2.017,0.8c4.054,0.229 7.196,1.036 9.084,2.021c1.098,0.574 1.789,1.227 2.051,1.852c0.504,1.204 1.084,2.272 1.488,3.466c0.263,-1.197 0.648,-2.258 1.127,-3.474c0.323,-0.818 1.351,-1.682 3.014,-2.372c1.79,-0.744 4.335,-1.32 7.455,-1.508Zm13.185,-6.54c0.052,-0.03 0.098,-0.073 0.133,-0.125c0.222,-0.337 0.428,-0.605 0.619,-0.809c0.166,-0.177 0.316,-0.303 0.456,-0.376c0.08,-0.042 0.151,-0.066 0.218,-0.055c0.062,0.011 0.112,0.053 0.162,0.108c0.09,0.098 0.167,0.236 0.237,0.403c0.441,1.043 0.581,3.077 0.576,5.309c-0.186,2.903 -0.701,4.906 -1.41,6.193c-0.582,1.056 -1.284,1.603 -2.032,1.72l-0,-0.001c-0.06,-0.158 -0.09,-0.378 -0.113,-0.648c-0.064,-0.72 -0.012,-1.74 0.102,-2.962c0.223,-2.396 0.687,-5.548 1.052,-8.757Zm-52.007,-3.568c0.061,0.989 0.139,2.029 0.239,3.106c-0.057,0.639 -0.066,1.207 -0.017,1.645c0.043,0.383 0.134,0.679 0.253,0.867c0.076,0.121 0.166,0.209 0.265,0.269c-0.765,1.702 -1.476,4.528 -1.403,9.509c-0.051,-0.025 -0.102,-0.05 -0.153,-0.075c-0.328,-0.165 -0.661,-0.362 -0.936,-0.758c-0.507,-0.731 -0.815,-2.066 -0.715,-4.811l0,-0.002c0,-0.008 0.001,-0.015 0,-0.023l0,-0.005c-0,-0.008 -0.001,-0.017 -0.001,-0.025l-0.001,-0.003c-0.001,-0.009 -0.002,-0.018 -0.003,-0.027l-0,0c-0.635,-3.659 -0.095,-6.781 0.82,-8.688c0.289,-0.602 0.613,-1.079 0.951,-1.402c0.147,-0.141 0.295,-0.253 0.441,-0.325c0.014,0.28 0.027,0.428 0.036,0.467c0.036,0.154 0.123,0.216 0.157,0.241c0.022,0.016 0.045,0.029 0.067,0.04Zm51.651,-5.769c-0.365,-1.685 -0.645,-2.657 -1.069,-3.367c-0.644,-1.075 -1.616,-1.539 -3.627,-3.002c-0.166,-0.12 -0.214,-0.347 -0.111,-0.525c0.104,-0.177 0.325,-0.247 0.511,-0.162c0.439,0.199 0.788,0.302 1.058,0.315c0.154,0.007 0.271,-0.008 0.338,-0.087c0.078,-0.09 0.086,-0.229 0.075,-0.394c-0.016,-0.254 -0.099,-0.555 -0.233,-0.888c-0.881,-2.181 -3.919,-5.585 -7.193,-5.984c-0.179,-0.022 -0.321,-0.161 -0.347,-0.339c-0.026,-0.178 0.07,-0.352 0.235,-0.425c0.216,-0.095 0.377,-0.192 0.482,-0.3c0.055,-0.057 0.092,-0.112 0.096,-0.173c0.005,-0.071 -0.028,-0.14 -0.075,-0.213c-0.078,-0.123 -0.198,-0.244 -0.347,-0.367c-1.082,-0.886 -3.569,-1.714 -5.647,-1.95c-0.118,-0.014 -0.223,-0.078 -0.288,-0.177c-0.066,-0.099 -0.084,-0.221 -0.05,-0.335c0.14,-0.472 0.11,-0.851 -0.081,-1.14c-0.317,-0.479 -1.001,-0.702 -1.839,-0.772c-2.279,-0.19 -5.685,0.864 -7.305,2.731c0.09,0.354 0.2,1.164 0.316,2.284c0.141,1.361 0.295,3.188 0.442,5.207c4.905,-0.102 8.435,1.046 11.014,2.849c3.129,2.186 4.865,5.344 5.941,8.462c1.055,3.056 1.47,6.068 1.974,8.037c0.01,0.04 0.014,0.081 0.011,0.122c-0.178,3.073 1.745,7.442 4.095,10.993c-0.003,-0.663 0.046,-1.468 0.131,-2.38c0.3,-3.219 1.041,-7.811 1.386,-12.058c0.054,-0.874 0.099,-2.009 0.107,-5.962Zm-26.275,-17.568c-0.801,-1.928 -3.165,-2.775 -5.584,-2.799c-2.098,-0.021 -4.264,0.579 -5.555,1.737c0.315,0.012 0.722,0.045 1.246,0.113c0.059,-0 0.12,0 0.18,0.001c0.009,-0 0.018,0 0.027,0.001c0.177,0.013 0.404,0.055 0.455,0.072c0.123,0.041 0.178,0.113 0.2,0.142c0.122,0.161 0.106,0.314 0.023,0.45c-0.028,0.046 -0.099,0.168 -0.301,0.191c-0.033,0.004 -0.207,-0.001 -0.634,-0.057c-0.717,0.002 -1.403,0.038 -2.058,0.106c-0.018,0.003 -0.035,0.005 -0.053,0.005c-8.604,0.91 -11.837,7.15 -11.912,9.795c-0.008,0.257 0.014,0.473 0.074,0.635c0.027,0.071 0.047,0.134 0.1,0.153c0.062,0.023 0.133,-0.016 0.224,-0.066c0.187,-0.104 0.399,-0.294 0.639,-0.574c0.129,-0.151 0.351,-0.184 0.519,-0.076c0.168,0.107 0.231,0.322 0.148,0.503c-0.796,1.736 -1.495,2.592 -2.232,3.479c-0.078,0.094 -0.157,0.189 -0.236,0.285c-0.016,0.835 -0.019,2.912 -0.025,4.851c0.026,1.278 0.08,2.75 0.179,4.355c0.352,-1.347 0.836,-2.627 1.399,-3.44c0.101,-0.179 0.181,-0.309 0.233,-0.384c0.099,-0.144 0.192,-0.197 0.214,-0.207c0.131,-0.063 0.238,-0.043 0.313,-0.016c0.121,0.044 0.244,0.135 0.262,0.342c0.003,0.033 0.005,0.087 -0.017,0.159c-0.011,0.034 -0.066,0.155 -0.198,0.36c-0.007,0.012 -0.016,0.024 -0.025,0.035c-0.036,0.046 -0.073,0.093 -0.108,0.143c-0.601,1.084 -1.941,4.099 -1.633,7.967c0.263,-0.441 0.514,-0.773 0.721,-1.038c0.149,-0.191 0.275,-0.339 0.359,-0.47c0.029,-0.056 0.059,-0.114 0.089,-0.173c0.096,-0.191 0.326,-0.272 0.521,-0.184c0.195,0.088 0.286,0.313 0.207,0.512c-0.022,0.058 -0.053,0.117 -0.089,0.179c-0.543,1.05 -0.987,1.665 -1.325,1.956c-0.761,1.445 -1.555,3.948 -1.59,8.669c1.138,-2.137 2.814,-4.522 5.097,-6.93c1.862,-4.563 3.203,-9.061 5.083,-12.858c2.821,-5.701 6.835,-9.851 15.498,-10.372c-0.222,-3.285 -0.405,-6.061 -0.439,-7.132c-0.006,-0.175 -0.003,-0.316 0.004,-0.42Zm1.677,33.453l-0,0l-0,0.001l0,-0.001Zm-0.002,0l-0,0l-0.002,0l0.002,0Zm-0.293,-0.338c-0.061,-0.061 -0.107,-0.097 -0.107,-0.065c-0.003,0.357 0.382,0.401 0.4,0.403l-0.032,-0.039c-0.02,-0.007 -0.04,-0.015 -0.058,-0.025l-0.013,-0.007l-0.016,-0.01l-0.016,-0.011l-0.013,-0.01c-0.006,-0.004 -0.017,-0.014 -0.017,-0.014l-0.013,-0.011l-0.013,-0.014l-0.012,-0.013l-0.012,-0.015l-0.01,-0.013c-0.009,-0.012 -0.017,-0.024 -0.024,-0.037l-0.007,-0.013l-0.008,-0.017l-0.005,-0.011c-0.011,-0.024 -0.019,-0.051 -0.024,-0.078Zm0.271,0.308l0.022,0.028l0.002,-0.026l-0.019,-0.006l-0.01,-0.003l0.005,0.007Zm-10.051,-4.654c0.659,0.026 7.888,0.251 9.707,0.312c0.017,1.443 0.037,2.801 0.052,3.514c-2.774,-0.466 -7.315,-1.199 -10.245,-0.724c-1.331,0.215 -2.34,0.697 -2.814,1.484c-0.475,0.003 -1.417,0.027 -1.986,0.041c0.108,-1.374 0.505,-2.49 1.281,-3.28c0.85,-0.867 2.145,-1.328 3.954,-1.347c0.017,0 0.034,0.001 0.051,0Zm19.666,-0.016l0.011,-0.001c1.689,0.018 2.901,0.477 3.696,1.339c0.731,0.792 1.104,1.911 1.205,3.288c-0.527,-0.013 -1.373,-0.036 -1.822,-0.04c-0.449,-0.787 -1.4,-1.267 -2.655,-1.483c-2.715,-0.469 -6.898,0.234 -9.52,0.701l-0,-0c0.008,-0.726 0.011,-2.069 0.01,-3.494c1.83,-0.065 8.42,-0.284 9.044,-0.31l0.002,0l0,0.003l0.029,-0.003Zm-19.222,-0.77c0.242,-1.428 0.721,-2.402 1.403,-3.044c0.868,-0.817 2.049,-1.086 3.404,-1.123c1.343,-0.036 2.853,0.161 4.42,0.347c-0.004,0.77 0.009,2.426 0.027,4.108c-1.672,-0.053 -7.583,-0.235 -9.254,-0.288Zm18.749,-0.015c-1.575,0.053 -6.949,0.229 -8.603,0.284l-0,0c-0.003,-1.683 -0.01,-3.34 -0.02,-4.108c1.463,-0.185 2.873,-0.379 4.127,-0.344c1.264,0.037 2.366,0.303 3.176,1.114c0.642,0.645 1.093,1.621 1.32,3.054Z" style="fill:#913bff;"/>
</svg>
