<svg xmlns="http://www.w3.org/2000/svg" data-name="Layer 1" width="715.11698" height="605.02827" viewBox="0 0 715.11698 605.02827" xmlns:xlink="http://www.w3.org/1999/xlink"><path d="M287.19619,403.37291a25.66667,25.66667,0,0,0-25.6377,25.63769V537.73521a25.66668,25.66668,0,0,0,25.6377,25.6377h168.7246a25.66668,25.66668,0,0,0,25.6377-25.6377V429.0106a25.66667,25.66667,0,0,0-25.6377-25.63769Z" transform="translate(-242.44151 -147.48587)" fill="#fff"/><path d="M455.92079,564.37291H287.19619a26.66767,26.66767,0,0,1-26.6377-26.6377V429.0106a26.66766,26.66766,0,0,1,26.6377-26.63769h168.7246a26.66766,26.66766,0,0,1,26.6377,26.63769V537.73521A26.66767,26.66767,0,0,1,455.92079,564.37291Zm-168.7246-160a24.66568,24.66568,0,0,0-24.6377,24.63769V537.73521a24.66569,24.66569,0,0,0,24.6377,24.6377h168.7246a24.66569,24.66569,0,0,0,24.6377-24.6377V429.0106a24.66568,24.66568,0,0,0-24.6377-24.63769Z" transform="translate(-242.44151 -147.48587)" fill="#3f3d56"/><path d="M356.72846,455.82c-2.77585,2.89219-5.43512,5.90084-7.93908,9.02608-5.51272,6.63846-10.94773,13.33522-16.40216,20.01255-3.3969,4.15382-6.79379,8.30777-10.15183,12.46171a24.78863,24.78863,0,0,1-3.02808-2.29046,27.16075,27.16075,0,0,1,34.70656-41.77213A25.03428,25.03428,0,0,1,356.72846,455.82Z" transform="translate(-242.44151 -147.48587)" fill="#8b5cf6"/><path d="M457.6222,452.66623v4.03l-1.8-.66-25.33-9.26c-17.54932,12.50119-24.309,6.60882-25-8.62-.3498-7.709-15.28-2.02-22.64.29-2.63327,5.63483-6.422,11.15949-17.64,10.95-3.0636-.05722-4.43,4.21-6.54,6.42-.69.73-1.38,1.46-2.06,2.19-2.04,2.22-6.02349,3.84019-5.88,6.84.44888,9.3844-1.29383,17.78717-16.4,20.01-5.31546.78217-11.05215,7.19538-10.16,12.46,3.5347,20.859-16.41409,30.36285-33.46,41.27a19.53627,19.53627,0,0,1-4.43-.56q16.965-21.075,34.09-42.04.39-.48.78-.96c1.34-1.67,2.71-3.35,4.07-5.01995q8.535-10.45506,17.08-20.89c4.14-5.06,8.25-10.14,12.71-14.94.27-.31.55-.61.84-.92.43-.46.86-.91,1.3-1.38,9.69-10.01,21.78-18.86,36.26-19.1,8.52-.13,16.75,2.57,24.67005,5.42005,8.53,3.09,17.03,6.23,25.55,9.35Z" transform="translate(-242.44151 -147.48587)" fill="#3f3d56"/><path d="M450.55849,477.98783v3.13625l-1.40078-.51365-19.71229-7.20631c-13.65721,9.72866-18.91774,5.14312-19.45547-6.70824-.27222-5.99925-11.89121-1.572-17.61889.22571-2.04926,4.38513-4.99774,8.68453-13.72779,8.52146-2.38415-.04453-3.44751,3.27631-5.08954,4.99619-.537.56809-1.07394,1.13617-1.60313,1.7043-1.58755,1.72763-4.68759,2.98851-4.57592,5.323.34933,7.30312-1.00688,13.84231-12.76276,15.57217-4.13659.60869-8.601,5.59957-7.90673,9.69662,2.75077,16.23287-12.77376,23.62894-26.03922,32.11706a15.20426,15.20426,0,0,1-3.44751-.43581q13.20249-16.401,26.5295-32.7163.30353-.37356.607-.74711c1.04283-1.29961,2.109-2.607,3.16735-3.90663q6.64211-8.13632,13.292-16.257c3.22184-3.93778,6.42031-7.89115,9.89118-11.62659.21009-.24124.428-.4747.65368-.716.33463-.358.66926-.7082,1.01167-1.07394,7.541-7.79,16.94963-14.6772,28.21822-14.864,6.63044-.10117,13.03517,2,19.1987,4.218,6.63818,2.40467,13.253,4.84829,19.88348,7.27633Z" transform="translate(-242.44151 -147.48587)" fill="#3f3d56"/><path d="M444.55849,502.30944v2.24246l-1.00158-.36727L429.46234,499.032c-9.7651,6.95613-13.52645,3.6774-13.91094-4.79649-.19464-4.28955-8.50238-1.124-12.59775.16139-1.46525,3.13543-3.57346,6.20956-9.81557,6.093-1.7047-.03184-2.465,2.34261-3.63909,3.57235-.38395.40619-.76789.81238-1.14626,1.2186-1.13512,1.23527-3.3517,2.13683-3.27186,3.806.24978,5.22183-.71993,9.89745-9.12555,11.13432-2.95772.43523-6.14984,4.00378-5.65343,6.93323,1.96684,11.60673-9.13341,16.895-18.61841,22.96415a10.87161,10.87161,0,0,1-2.465-.31161q9.44-11.72691,18.969-23.39262l.434-.5342c.74564-.92924,1.508-1.86405,2.2647-2.79329q4.7492-5.81759,9.504-11.624c2.30366-2.81557,4.59061-5.64228,7.07233-8.31318.15021-.17249.306-.33941.46739-.51191.23926-.256.47853-.50638.72336-.76789,5.39188-5.56994,12.11923-10.4944,20.17643-10.628,4.74086-.07234,9.32033,1.43,13.72734,3.01591,4.7464,1.71938,9.47611,3.4666,14.217,5.20268Z" transform="translate(-242.44151 -147.48587)" fill="#3f3d56"/><path d="M617.81986,343.70595l14.3783,22.16086-11.34195,9.24145-14.37927-23.9221a9.33188,9.33188,0,0,1-2.32812-1.21169,8.47252,8.47252,0,1,1,9.842-13.76661A9.01345,9.01345,0,0,1,617.81986,343.70595Z" transform="translate(-242.44151 -147.48587)" fill="#ffb6b6"/><polygon points="574.749 577.747 565.967 583.457 539.765 552.303 552.725 543.876 574.749 577.747" fill="#ffb6b6"/><path d="M823.45617,734.19248l-27.00344,17.55859-.222-.34146a12.53776,12.53776,0,0,1,3.67565-17.34477l.00065-.00042,2.499-6.94943,11.6365-2.24191,2.35721-1.53279Z" transform="translate(-242.44151 -147.48587)" fill="#2f2e41"/><polygon points="424.259 592.709 413.785 592.708 408.802 552.306 424.261 552.307 424.259 592.709" fill="#ffb6b6"/><path d="M667.06906,751.12128l-32.21009-.00123v-.40731A12.53775,12.53775,0,0,1,647.396,738.17587h.00078l5.88357-4.46356,10.97745,4.46427,2.81175.00007Z" transform="translate(-242.44151 -147.48587)" fill="#2f2e41"/><path d="M775.1202,490.89088l-93.928,2.06521-9.31028,11.63785s-10.98049,5.72794-11.6971,10.23461-7.05164,84.53081-3.62628,87.54436-6.49517,23.82025-7.22375,25.08921-8.5817,63.89957,0,69.04955l3.22375,21.86124h15S682.585,700.98354,679.561,697.83124s5.62494-13.63452,5.95561-19.25541,3.48856-31.1152,1.04186-35.20292-5.75427-19.42832.45259-25.37554,35.155-79.0295,35.155-79.0295,8.41217,85.6776,8.39241,92.405c-.0257,8.74882,5.71952,4.41886,5.71952,12.09946,0,1.55171,18.70753,41.43415,31.28048,53.90054l26,20,12-9v-13s-11.12071-24.12072-15-28-18.20313-15.754-18.20313-21.185-6.74293-7.3231-2.20768-14.52355,2.98354-10.30388,1.43183-13.40731,16.293-100.86142,16.293-100.86142Z" transform="translate(-242.44151 -147.48587)" fill="#2f2e41"/><path d="M757.33566,313.49948l-40.75355-1.95809L706.1534,328.65008s-30.45991,3.05718-26.10411,14.5135,8.13734,79.48063,1.97935,89.30441-15.608,1.68033-7.39165,20.88126-10.06759,52.984-10.06759,52.984l53.19754,11.21665s42.67214-12.41371,50.43072-20.17228,14.74128-13.96543,10.08614-16.293-17.84472-3.87929-10.862-14.74129,7.83641-10.3598,7.79749-17.59361-4.11981-25.15877-4.11981-25.15877,26.78006-75.95559,18.71267-78.82357-30.58878-16.1173-30.58878-16.1173Z" transform="translate(-242.44151 -147.48587)" fill="#e6e6e6"/><path d="M704.598,336.799s-23.3727-11.10728-26.82052,4.13684-16.75756,53.48637-16.75756,53.48637-14.74367-8.53562-12.41372-13.18957-10.28563-5.36109-6.20685-13.18957S627.658,352.526,627.658,352.526l-22.49985,9.31028s8.71231,13.05766,14.5008,18.81466-2.85938,6.78506,4.11977,13.77134,21.03186,33.12154,21.03186,33.12154l18.29762,7.62879,51.39026-31.39429Z" transform="translate(-242.44151 -147.48587)" fill="#e6e6e6"/><circle cx="493.51271" cy="126.47692" r="28.38294" fill="#ffb6b6"/><path d="M754.44384,281.25528c1.34785-.6855,3.06584.51224,3.38832,1.9896a5.56278,5.56278,0,0,1-1.23069,4.22965,26.61513,26.61513,0,0,0-2.59624,3.70952,3.98,3.98,0,0,0,.24654,4.27233,3.56689,3.56689,0,0,0,3.73039.787,7.96786,7.96786,0,0,0,3.23511-2.3376c5.42625-5.88715,11.0867-15.66044,8.3127-23.17094a7.33626,7.33626,0,0,1-.27051-2.47244c-.05311-.95553-.23017-2.39515.66994-2.72013,2.51192-.9069-4.53616-15.58932-15.41432-18.78356.52983-5.01321-25.64069-12.22437-24.21212-5.93055.25656,1.13023-2.27056.51594-3.42786.57856-8.87927.48051-18.90712,2.71181-18.09858,13.00319.3131,3.98525-1.33546,3.06595-2.659,6.838,2.06192,1.22927,2.73846,3.92491,4.328,2.126s2.94719-4.05186,5.22573-4.80739c2.42615-.80448,5.05846.39894,7.12772,1.89945s3.96769,3.36481,6.3999,4.15077c2.72788.8815,5.7022.26825,8.54669.625,4.0436.50712,7.63428,2.97815,10.30667,6.05487a50.27094,50.27094,0,0,1,6.40186,10.37791" transform="translate(-242.44151 -147.48587)" fill="#2f2e41"/><path d="M861.22413,752.20682l-315.3575.30731a1.19069,1.19069,0,0,1,0-2.38134l315.3575-.30732a1.19069,1.19069,0,0,1,0,2.38135Z" transform="translate(-242.44151 -147.48587)" fill="#cacaca"/><path d="M762.19619,503.37291a25.66667,25.66667,0,0,0-25.6377,25.63769V637.73521a25.66668,25.66668,0,0,0,25.6377,25.6377h168.7246a25.66668,25.66668,0,0,0,25.6377-25.6377V529.0106a25.66667,25.66667,0,0,0-25.6377-25.63769Z" transform="translate(-242.44151 -147.48587)" fill="#fff"/><path d="M930.92079,664.37291H762.19619a26.66767,26.66767,0,0,1-26.6377-26.6377V529.0106a26.66766,26.66766,0,0,1,26.6377-26.63769h168.7246a26.66766,26.66766,0,0,1,26.6377,26.63769V637.73521A26.66767,26.66767,0,0,1,930.92079,664.37291Zm-168.7246-160a24.66568,24.66568,0,0,0-24.6377,24.63769V637.73521a24.66569,24.66569,0,0,0,24.6377,24.6377h168.7246a24.66569,24.66569,0,0,0,24.6377-24.6377V529.0106a24.66568,24.66568,0,0,0-24.6377-24.63769Z" transform="translate(-242.44151 -147.48587)" fill="#3f3d56"/><ellipse cx="829.24291" cy="611.21164" rx="5.25681" ry="7.55666" transform="translate(-137.43668 1196.32572) rotate(-81.72174)" fill="#e6e6e6"/><ellipse cx="878.41443" cy="606.41359" rx="5.2568" ry="7.55666" transform="translate(-90.59685 1240.87767) rotate(-81.72174)" fill="#3f3d56"/><ellipse cx="815.7783" cy="571.40348" rx="5.25681" ry="7.55666" transform="translate(-109.56927 1148.92485) rotate(-81.72174)" fill="#ff6584"/><ellipse cx="798.56774" cy="556.16039" rx="4.77581" ry="3.3223" transform="translate(-6.05666 1203.01401) rotate(-89.56675)" fill="#e6e6e6"/><ellipse cx="791.32201" cy="525.78878" rx="4.77581" ry="3.3223" transform="translate(17.12314 1165.62654) rotate(-89.56675)" fill="#3f3d56"/><ellipse cx="847.66718" cy="579.2407" rx="4.77581" ry="3.3223" transform="translate(19.59186 1275.01782) rotate(-89.56675)" fill="#e6e6e6"/><ellipse cx="823.90537" cy="591.10469" rx="4.77581" ry="3.3223" transform="translate(-15.85392 1263.03098) rotate(-89.56675)" fill="#ff6584"/><ellipse cx="856.98264" cy="613.03243" rx="4.77581" ry="3.3223" transform="translate(-4.95389 1317.86924) rotate(-89.56675)" fill="#3f3d56"/><ellipse cx="628.90216" cy="445.19135" rx="5.25681" ry="7.55666" fill="#e6e6e6"/><ellipse cx="617.07437" cy="397.223" rx="5.2568" ry="7.55666" fill="#3f3d56"/><ellipse cx="591.44741" cy="464.24726" rx="5.25681" ry="7.55666" fill="#ff6584"/><ellipse cx="821.28264" cy="630.95906" rx="4.77581" ry="3.3223" transform="translate(-320.87681 -29.48112) rotate(-7.84498)" fill="#e6e6e6"/><ellipse cx="792.27072" cy="642.5022" rx="4.77581" ry="3.3223" transform="translate(-322.7239 -33.33302) rotate(-7.84498)" fill="#3f3d56"/><ellipse cx="837.05311" cy="579.04811" rx="4.77581" ry="3.3223" transform="translate(-313.64372 -27.81439) rotate(-7.84498)" fill="#e6e6e6"/><ellipse cx="852.21472" cy="600.85415" rx="4.77581" ry="3.3223" transform="translate(-316.4782 -25.54085) rotate(-7.84498)" fill="#ff6584"/><ellipse cx="869.15152" cy="564.96437" rx="4.77581" ry="3.3223" transform="translate(-311.42098 -23.56499) rotate(-7.84498)" fill="#3f3d56"/><path d="M433.19619,184.37291a25.66667,25.66667,0,0,0-25.6377,25.63769V318.73521a25.66668,25.66668,0,0,0,25.6377,25.6377h168.7246a25.66668,25.66668,0,0,0,25.6377-25.6377V210.0106a25.66667,25.66667,0,0,0-25.6377-25.63769Z" transform="translate(-242.44151 -147.48587)" fill="#fff"/><path d="M601.92079,345.37291H433.19619a26.668,26.668,0,0,1-26.6377-26.6377V210.0106a26.668,26.668,0,0,1,26.6377-26.63769h168.7246a26.668,26.668,0,0,1,26.6377,26.63769V318.73521A26.668,26.668,0,0,1,601.92079,345.37291Zm-168.7246-160a24.66537,24.66537,0,0,0-24.6377,24.63769V318.73521a24.66538,24.66538,0,0,0,24.6377,24.6377h168.7246a24.66538,24.66538,0,0,0,24.6377-24.6377V210.0106a24.66537,24.66537,0,0,0-24.6377-24.63769Z" transform="translate(-242.44151 -147.48587)" fill="#3f3d56"/><path d="M500.37514,292.88055a22.225,22.225,0,0,0-15.944-6.50764l-.23616.00063a22.76683,22.76683,0,0,1-11.47705-3.09945l-.36251-.21122.292-.30084a22.19121,22.19121,0,0,0,3.91338-5.54052,6.71029,6.71029,0,0,1-5.41552,1.74946,6.87114,6.87114,0,0,1-5.04414-3.23086c-2.13985-3.47194-4.69058-8.39835-4.69058-12.15133a22.83628,22.83628,0,0,1,7.45031-16.85109,14.22047,14.22047,0,0,0,4.69762-10.60327l-.00119-.28437a32.252,32.252,0,0,1,.95731-7.80451l.0646-.25777.26521.00926a21.80365,21.80365,0,0,0,5.09829-.42711,17.2089,17.2089,0,0,1-4.57229-1.21611l-.28532-.11543.09683-.29237c6.67482-4.13279,21.74181-1.99262,30.48714-22.00138,7.09126-16.22439,32.11167,14.4024,32.11167,32.10542,0,1.80638-1.7877,4.19348-.44944,5.38741,14.46679,12.90647,4.48491,21.1942,1.33779,29.53364-.74669,1.97864.87236,4.1508.87236,6.29144,0,.36322-.00927.73816-.02755,1.11437l-.02787.57841-.48237-.32095a15.97749,15.97749,0,0,1-2.63845-2.16415,13.92372,13.92372,0,0,1-.4416,12.02046,21.28622,21.28622,0,0,1-4.35942,6.08837,22.76218,22.76218,0,0,1-31.18905-1.4985Z" transform="translate(-242.44151 -147.48587)" fill="#8b5cf6"/><path d="M524.5956,335.92971a.40974.40974,0,0,0,.40516-.352,137.19238,137.19238,0,0,0,.19114-28.76454c-1.41428-15.09441-5.95612-36.83569-19.56169-54.69144a.40977.40977,0,1,0-.65185.49672c13.488,17.70157,17.99327,39.28331,19.39759,54.27115a136.26464,136.26464,0,0,1-.18654,28.5726.41013.41013,0,0,0,.40619.46752Z" transform="translate(-242.44151 -147.48587)" fill="#3f3d56"/><path d="M513.49265,277.30808a.40976.40976,0,0,0,.24123-.74122,56.47525,56.47525,0,0,0-12.46769-6.34674c-6.87865-2.51831-17.33866-4.80134-28.10705-1.37414a.40971.40971,0,1,0,.24849.78084c10.54778-3.35677,20.81818-1.1115,27.57678,1.36293a55.5476,55.5476,0,0,1,12.26768,6.24A.40809.40809,0,0,0,513.49265,277.30808Z" transform="translate(-242.44151 -147.48587)" fill="#3f3d56"/><path d="M532.24653,230.5992a.40975.40975,0,0,0-.72192-.294,56.47408,56.47408,0,0,0-7.22812,11.97826c-3.00715,6.67943-6.03752,16.94786-3.3947,27.93511a.40971.40971,0,1,0,.79671-.19162c-2.58847-10.76213.3906-20.84417,3.34533-27.407a55.5477,55.5477,0,0,1,7.10728-11.78646A.408.408,0,0,0,532.24653,230.5992Z" transform="translate(-242.44151 -147.48587)" fill="#3f3d56"/><path d="M570.61483,215.88077c-5.15377-21.64584-4.29431-42.9657,4.53083-63.85371a4.89248,4.89248,0,0,1,5.22058-4.52879L628.59,150.92006a4.89246,4.89246,0,0,1,4.52876,5.22056l-4.53084,63.85372a4.89246,4.89246,0,0,1-5.22054,4.5288l-48.22374-3.42179A4.89248,4.89248,0,0,1,570.61483,215.88077Z" transform="translate(-242.44151 -147.48587)" fill="#f2f2f2"/><path d="M575.68239,196.85676c-4.12451-10.66664-1.48736-25.33683,2.91283-41.051a4.58187,4.58187,0,0,1,4.88923-4.24135l41.44424,2.94074a4.58206,4.58206,0,0,1,4.24158,4.88924l-4.03183,56.82112a4.582,4.582,0,0,1-4.88945,4.24133l-25.67385-1.82172A20.40975,20.40975,0,0,1,575.68239,196.85676Z" transform="translate(-242.44151 -147.48587)" fill="#fff"/><circle cx="353.53452" cy="55.44685" r="4.27401" fill="#8b5cf6"/><path d="M612.58,165.54077c-1.01846-2.32146-3.98887-2.8964-6.51009-3.16074a29.43232,29.43232,0,0,0-7.80815-.12,9.91307,9.91307,0,0,0-6.62581,3.77253c-1.83275,2.63369-1.75213,6.12014-1.35456,9.30381a62.74124,62.74124,0,0,0,4.94528,17.74029l1.67852,1.49136a38.48168,38.48168,0,0,0,15.86118-25.335A6.65182,6.65182,0,0,0,612.58,165.54077Z" transform="translate(-242.44151 -147.48587)" fill="#8b5cf6"/><path d="M245.61483,582.88077c-5.15377-21.64584-4.29431-42.9657,4.53083-63.85371a4.89248,4.89248,0,0,1,5.22058-4.52879L303.59,517.92006a4.89246,4.89246,0,0,1,4.52876,5.22056l-4.53084,63.85372a4.89246,4.89246,0,0,1-5.22054,4.5288l-48.22374-3.42179A4.89248,4.89248,0,0,1,245.61483,582.88077Z" transform="translate(-242.44151 -147.48587)" fill="#f2f2f2"/><path d="M250.68239,563.85676c-4.12451-10.66664-1.48736-25.33683,2.91283-41.051a4.58187,4.58187,0,0,1,4.88923-4.24135l41.44424,2.94074a4.58206,4.58206,0,0,1,4.24158,4.88924l-4.03183,56.82112a4.582,4.582,0,0,1-4.88945,4.24133l-25.67385-1.82172A20.40975,20.40975,0,0,1,250.68239,563.85676Z" transform="translate(-242.44151 -147.48587)" fill="#fff"/><path d="M294.28792,537.60423c-9.73822,4.79517-17.43262,9.23779-21.47748,19.26459-2.60577-6.00556-5.21154-8.01105-7.81732-14.01654-.76648-1.76654-3.35181-.24073-2.59039,1.5141q4.62662,10.66314,9.25335,21.32623c.54407,1.254,2.40174.76373,2.74158-.35834a41.711,41.711,0,0,1,21.40442-25.13959C297.534,539.34184,296.01558,536.75352,294.28792,537.60423Z" transform="translate(-242.44151 -147.48587)" fill="#8b5cf6"/><path d="M751.61483,573.88077c-5.15377-21.64584-4.29431-42.9657,4.53083-63.85371a4.89248,4.89248,0,0,1,5.22058-4.52879L809.59,508.92006a4.89246,4.89246,0,0,1,4.52876,5.22056l-4.53084,63.85372a4.89246,4.89246,0,0,1-5.22054,4.5288l-48.22374-3.42179A4.89248,4.89248,0,0,1,751.61483,573.88077Z" transform="translate(-242.44151 -147.48587)" fill="#f2f2f2"/><path d="M756.68239,554.85676c-4.12451-10.66664-1.48736-25.33683,2.91283-41.051a4.58187,4.58187,0,0,1,4.88923-4.24135l41.44424,2.94074a4.58206,4.58206,0,0,1,4.24158,4.88924l-4.03183,56.82112a4.582,4.582,0,0,1-4.88945,4.24133l-25.67385-1.82172A20.40975,20.40975,0,0,1,756.68239,554.85676Z" transform="translate(-242.44151 -147.48587)" fill="#fff"/><path d="M800.28792,528.60423c-9.73822,4.79517-17.43262,9.23779-21.47748,19.26459-2.60577-6.00556-5.21154-8.01105-7.81732-14.01654-.76648-1.76654-3.35181-.24073-2.59039,1.5141q4.62661,10.66314,9.25335,21.32623c.54407,1.254,2.40174.76373,2.74158-.35834a41.711,41.711,0,0,1,21.40442-25.13959C803.534,530.34184,802.01558,527.75352,800.28792,528.60423Z" transform="translate(-242.44151 -147.48587)" fill="#8b5cf6"/><path d="M767.83633,499.42864l13.228-21.61655,13.40292,5.83371-14.79868,22.35675a8.48371,8.48371,0,1,1-11.83228-6.57391Z" transform="translate(-242.44151 -147.48587)" fill="#ffb6b6"/><path d="M769.12013,348.15188s18.47395-6.72154,20.80152-2.0664,14.82689,89.60233,13.23237,94.06809-11.68065-7.94795-1.59451,4.46576,8.53443,9.31029,6.20686,11.63786-11.92763,34.91968-11.92763,34.91968L769.12013,487.658l9.16367-50.79726L766.481,373.409Z" transform="translate(-242.44151 -147.48587)" fill="#e6e6e6"/></svg>