<svg aria-hidden="true" focusable="false" data-prefix="fab" data-icon="orcid" class="svg-inline--fa fa-orcid" role="img" xmlns="http://www.w3.org/2000/svg" viewBox="0 0 512 512"><path fill="currentColor" d="M294.8 188.2h-45.92V342h47.47c67.62 0 83.12-51.34 83.12-76.91 0-41.64-26.54-76.9-84.67-76.9zM256 8C119 8 8 119 8 256s111 248 248 248 248-111 248-248S393 8 256 8zm-80.79 360.8h-29.84v-207.5h29.84zm-14.92-231.1a19.57 19.57 0 1 1 19.57-19.57 19.64 19.64 0 0 1 -19.57 19.57zM300 369h-81V161.3h80.6c76.73 0 110.4 54.83 110.4 103.8C410 318.4 368.4 369 300 369z"></path></svg>